<svg width="64" height="64" viewBox="0 0 64 64" fill="none" xmlns="http://www.w3.org/2000/svg">
<rect width="64" height="64" rx="6" fill="white"/>
<path d="M24.5208 12.0412C24.5208 18.0544 31.867 20.9802 36.001 16.6133L44.6329 7.49518C45.9047 6.1517 47.6733 5.39062 49.5233 5.39062C55.4986 5.39062 58.514 12.5945 54.3203 16.851L47.0383 24.242C43.6178 27.7137 38.054 29.1991 33.181 29.2808C31.2119 29.3138 29.0286 29.3809 26.7307 29.3809C23.0714 29.3809 20.135 26.336 20.135 22.6767V14.0044C20.135 11.884 18.4161 10.165 16.2957 10.165C14.1752 10.165 12.4563 11.884 12.4563 14.0044V52.769C12.4563 54.8895 14.1752 56.6084 16.2957 56.6084C18.4161 56.6084 20.135 54.8895 20.135 52.769V41.1388C20.135 37.4639 23.0558 34.3887 26.7307 34.3887C28.5686 34.3887 30.3331 34.4417 31.9733 34.4918C37.6254 34.6644 45.0152 36.6628 48.9763 40.6985L54.84 46.6728C59.1986 51.1134 56.0526 58.6094 49.8304 58.6094C47.9044 58.6094 46.0631 57.8181 44.7376 56.4208L36.0829 47.2971C31.9156 42.9039 24.5208 45.8533 24.5208 51.9086C24.5208 55.6094 21.5207 58.6094 17.82 58.6094H16.4446C11.9842 58.6094 8.36841 54.9935 8.36841 50.5332V13.4668C8.36841 9.00645 11.9842 5.39062 16.4446 5.39062H17.8702C21.5432 5.39062 24.5208 8.36819 24.5208 12.0412Z" fill="url(#paint0_linear_216_112)"/>
<defs>
<linearGradient id="paint0_linear_216_112" x1="49.1436" y1="5.39063" x2="16.0887" y2="58.6094" gradientUnits="userSpaceOnUse">
<stop stop-color="#FEBA17"/>
<stop offset="1" stop-color="#FB9026"/>
</linearGradient>
</defs>
</svg>
